C:\GBW_MyPrograms\PredSimResults\Vitruvian_man\IG_v40ms_35.mot
version=1
nRows=13
nColumns=35
inDegrees=yes
endheader
                time	         pelvis_tilt	           pelvis_tx	           pelvis_ty	       hip_flexion_r	        knee_angle_r	       ankle_angle_r	         mtp_angle_r	       hip_flexion_l	        knee_angle_l	       ankle_angle_l	         mtp_angle_l	    lumbar_extension	          arm_flex_r	          arm_flex_l	        elbow_flex_r	        elbow_flex_l	hamstrings_r/activation	bifemsh_r/activation	glut_max_r/activation	iliopsoas_r/activation	rect_fem_r/activation	  vasti_r/activation	gastroc_r/activation	 soleus_r/activation	tib_ant_r/activation	hamstrings_l/activation	bifemsh_l/activation	glut_max_l/activation	iliopsoas_l/activation	rect_fem_l/activation	  vasti_l/activation	gastroc_l/activation	 soleus_l/activation	tib_ant_l/activation	
          0.26270485	         -8.23208080	          1.05081939	          0.98525074	          4.15813567	        -46.37095983	        -26.06406327	         10.58139733	         37.43864044	        -23.77006486	        -13.51562749	          0.38307290	         -5.32569710	         17.71075296	         17.71075043	         83.86096150	         83.86097250	          0.05000000	          0.99286257	          0.05000000	          0.99961385	          0.99670019	          0.05563850	          0.49508762	          0.14259565	          0.25588688	          0.93724013	          0.12589015	          0.72296585	          0.05437840	          0.05131856	          0.05549080	          0.05914023	          0.05914023	          0.49195601	
          0.26795895	         -8.24383933	          1.07248165	          0.98315032	          5.17349203	        -47.89494673	        -25.38267101	          9.88529612	         36.94640344	        -23.95323169	        -12.54484841	          0.14606774	         -5.21200278	         17.11101333	         17.11101087	         82.36674483	         82.36675530	          0.05000000	          0.99471409	          0.05000000	          0.99971402	          0.99755619	          0.05115863	          0.45918863	          0.13111421	          0.26815574	          0.86177589	          0.11575380	          0.79483103	          0.05000002	          0.05000000	          0.05102282	          0.05437840	          0.05437840	          0.62374723	
          0.27321304	         -8.28289033	          1.09411632	          0.98068160	          6.31890554	        -49.50131571	        -24.72207941	          9.22919908	         36.50943008	        -24.57105395	        -10.94122177	         -0.36037379	         -5.05447603	         16.61659560	         16.61659320	         81.01797946	         81.01798938	          0.05000001	          0.99608530	          0.05000000	          0.95432726	          0.99819014	          0.05000000	          0.42221723	          0.12055722	          0.27439118	          0.79238785	          0.10643360	          0.84805373	          0.05000001	          0.05000000	          0.29719613	          0.05000000	          0.05000000	          0.57352466	
          0.27846714	         -8.35111388	          1.11571627	          0.97788455	          7.59227303	        -51.17996891	        -24.05907304	          8.61311277	         36.08617966	        -25.59909862	         -8.82461347	         -1.18715771	         -4.85324161	         16.22759616	         16.22759384	         79.81802451	         79.81803390	          0.05000000	          0.99710081	          0.05000000	          0.87748722	          0.99865963	          0.05000000	          0.44344690	          0.11085025	          0.25551680	          0.72858676	          0.09786383	          0.88746998	          0.05000002	          0.05000000	          0.47950985	          0.05914022	          0.05000000	          0.52734589	
          0.28372124	         -8.44802706	          1.13728242	          0.97482387	          8.98483821	        -52.90794318	        -23.42783710	          8.03861017	         35.60410379	        -26.93650690	         -6.09237256	         -1.93672545	         -4.61120232	         15.94408522	         15.94408296	         78.76711995	         78.76712879	          0.05000001	          0.99785289	          0.05000000	          0.80683414	          0.99900734	          0.05000000	          0.40774178	          0.10192487	          0.27848208	          0.66992277	          0.08998408	          0.91666129	          0.05000000	          0.05914022	          0.61452973	          0.05437840	          0.06957879	          0.48488532	
          0.28897533	         -8.57034650	          1.15882126	          0.97157694	         10.48188901	        -54.65999659	        -22.82438329	          7.49502510	         34.96322783	        -28.30479541	         -2.71550187	         -2.06521010	         -4.33460748	         15.76491827	         15.76491607	         77.86514698	         77.86515528	          0.05402772	          0.99840987	          0.05000000	          0.74186988	          0.99926484	          0.05000000	          0.37491149	          0.09371813	          0.28018609	          0.61598226	          0.08273879	          0.93828011	          0.05000000	          0.05437840	          0.71452423	          0.05000000	          0.06397648	          0.44584356	
          0.29422943	         -8.71715985	          1.18030138	          0.96823623	         12.07652088	        -56.41870520	        -22.20295196	          6.97989832	         34.10780742	        -29.32024399	          0.76369140	         -1.74931356	         -4.03226568	         15.68725832	         15.68725615	         77.11149875	         77.11150650	          0.08998411	          0.99882236	          0.05000000	          0.68213637	          0.98398395	          0.05000000	          0.34472459	          0.08617218	          0.30824434	          0.56638491	          0.07607687	          0.95429081	          0.05000000	          0.05000000	          0.78857924	          0.05000000	          0.11407045	          0.40994535	
          0.29948353	         -8.89372132	          1.20157227	          0.96493529	         13.78642209	        -58.18259698	        -21.52903596	          6.49079815	         33.16465178	        -30.04505955	          3.68387740	         -1.23700198	         -3.72151092	         15.71356866	         15.71356650	         76.50669105	         76.50669827	          0.08273882	          0.99912785	          0.05000000	          0.62721245	          0.98611829	          0.05000000	          0.31696825	          0.07923382	          0.30843906	          0.52078101	          0.06995135	          0.96614819	          0.05000000	          0.05000000	          0.84342371	          0.05000000	          0.24966120	          0.37693757	
          0.30473762	         -9.09844233	          1.22249169	          0.96181677	         15.61868265	        -59.94163300	        -20.79957528	          6.03139650	         32.29019856	        -30.72421533	          6.01718380	         -0.55644619	         -3.42602288	         15.84497126	         15.84496913	         76.05059081	         76.05059748	          0.07607689	          0.99935410	          0.05000000	          0.57671088	          0.90706834	          0.05000000	          0.29144678	          0.07285411	          0.31811196	          0.47884902	          0.06431904	          0.97492966	          0.05000000	          0.05000000	          0.88404103	          0.18848579	          0.44430591	          0.34658750	
          0.30999172	         -9.32929103	          1.24301165	          0.95897198	         17.56575114	        -61.67258127	        -20.03041101	          5.60095664	         31.55539111	        -31.49441281	          7.85837518	          0.29477058	         -3.15544862	         16.08147346	         16.08147135	         75.74305838	         75.74306450	          0.06995137	          0.99952165	          0.05000000	          0.53027559	          0.83403348	          0.05000000	          0.26798024	          0.06698808	          0.31548319	          0.44029330	          0.05914024	          0.98143314	          0.05000000	          0.05000000	          0.91412184	          0.27946247	          0.58845801	          0.31868114	
          0.31524582	         -9.58827041	          1.26317837	          0.95642424	         19.61236436	        -63.34994098	        -19.22658793	          5.19940288	         30.93709684	        -32.33414571	          9.31693464	          1.30125802	         -2.89977205	         16.42329702	         16.42329493	         75.58437720	         75.58438279	          0.06431906	          0.99964574	          0.05000000	          0.48757917	          0.76687919	          0.05000000	          0.24640316	          0.06159437	          0.30937276	          0.40484198	          0.05437841	          0.98624955	          0.05000000	          0.05000000	          0.93639942	          0.35555420	          0.69521575	          0.29302173	
          0.32049992	         -9.87658007	          1.28307868	          0.95416530	         21.73828478	        -64.95068684	        -18.40038921	          4.82635237	         30.36852911	        -33.14634418	         10.47560263	          2.44985921	         -2.64375981	         16.87061755	         16.87061549	         75.57476983	         75.57477487	          0.05914025	          0.99973764	          0.05000000	          0.44832055	          0.70513199	          0.05000000	          0.22656341	          0.05663494	          0.30359153	          0.37224513	          0.05000001	          0.98981655	          0.05000000	          0.05000000	          0.95289799	          0.42786775	          0.77427956	          0.26942835	
          0.32575401	        -10.19389246	          1.30279469	          0.95218212	         23.92353565	        -66.45677146	        -17.56857065	          4.47982687	         29.78872706	        -33.84164760	         11.39700465	          3.72497817	         -2.37500749	         17.42344824	         17.42344620	         75.71420363	         75.71420813	          0.05437843	          0.99980570	          0.05000000	          0.41222338	          0.64835653	          0.05000000	          0.20832111	          0.05207484	          0.29534924	          0.35470273	          0.05000000	          0.99245823	          0.05000000	          0.05000000	          0.96511668	          0.48791443	          0.83283349	          0.24773466	
